<?xml version="1.0" encoding="UTF-8"?>
<svg version="1.1" xmlns="http://www.w3.org/2000/svg" width="389" height="363">
<path d="M0 0 C128.37 0 256.74 0 389 0 C389 119.79 389 239.58 389 363 C260.63 363 132.26 363 0 363 C0 243.21 0 123.42 0 0 Z " fill="#000105" transform="translate(0,0)"/>
<path d="M0 0 C18.15 0 36.3 0 55 0 C55 15.84 55 31.68 55 48 C72.16 48 89.32 48 107 48 C107 64.83 107 81.66 107 99 C89.84 99 72.68 99 55 99 C55 116.16 55 133.32 55 151 C36.85 151 18.7 151 0 151 C0 133.84 0 116.68 0 99 C-18.48 99 -36.96 99 -56 99 C-56 82.17 -56 65.34 -56 48 C-28.775 47.505 -28.775 47.505 -1 47 C-0.67 31.49 -0.34 15.98 0 0 Z " fill="#18C53B" transform="translate(169,114)"/>
<path d="M0 0 C18.15 0 36.3 0 55 0 C55 16.83 55 33.66 55 51 C36.85 51 18.7 51 0 51 C0 34.17 0 17.34 0 0 Z " fill="#000105" transform="translate(113,213)"/>
<path d="M0 0 C18.15 0 36.3 0 55 0 C55 16.83 55 33.66 55 51 C36.85 51 18.7 51 0 51 C0 34.17 0 17.34 0 0 Z " fill="#18C53B" transform="translate(58,213)"/>
<path d="M0 0 C17.16 0 34.32 0 52 0 C52 17.16 52 34.32 52 52 C34.84 52 17.68 52 0 52 C0 34.84 0 17.68 0 0 Z " fill="#18C33B" transform="translate(224,62)"/>
<path d="M0 0 C18.15 0 36.3 0 55 0 C55 15.51 55 31.02 55 47 C36.85 47 18.7 47 0 47 C0 31.49 0 15.98 0 0 Z " fill="#19C63C" transform="translate(113,265)"/>
<path d="M0 0 C16.83 0 33.66 0 51 0 C51 15.51 51 31.02 51 47 C34.17 47 17.34 47 0 47 C0 31.49 0 15.98 0 0 Z " fill="#19C63C" transform="translate(276,114)"/>
</svg>
